<svg xmlns="http://www.w3.org/2000/svg" xmlns:xlink="http://www.w3.org/1999/xlink" width="323" height="647" viewBox="0 0 323 647">
  <defs>
    <clipPath id="clip-path">
      <rect id="Rectangle_1544" data-name="Rectangle 1544" width="323" height="647" transform="translate(-0.478 0.117)" fill="none"/>
    </clipPath>
    <linearGradient id="linear-gradient" x1="0.71" x2="0.315" y2="0.448" gradientUnits="objectBoundingBox">
      <stop offset="0" stop-color="#22b59f"/>
      <stop offset="1" stop-color="#1b8871"/>
    </linearGradient>
  </defs>
  <g id="iphone" transform="translate(0.478 -20.117)">
    <g id="Groupe_4104" data-name="Groupe 4104" transform="translate(0 20)" clip-path="url(#clip-path)">
      <path id="Tracé_3308" data-name="Tracé 3308" d="M274.13,0H51.739C25.1,0,3.312,20.56,3.312,47.2v39.93c0-.156-.994-.257-1.392-.257-.7,0-1.92.3-1.92.675v22.914c0,.373,1.222.674,1.92.674.4,0,1.392-.1,1.392-.254v25.107c0-.675-.962-1.224-1.656-1.224S0,135.309,0,135.984v41.658c0,.677.961,1.227,1.656,1.227s1.656-.55,1.656-1.227v19.187c0-.7-.962-1.262-1.656-1.262S0,196.132,0,196.829v42.847c0,.7.961,1.261,1.656,1.261s1.656-.564,1.656-1.261V598.2c0,26.635,21.791,48.832,48.427,48.832H274.13c26.634,0,48.28-22.2,48.28-48.832V47.2C322.41,20.56,300.764,0,274.13,0" transform="translate(0.112 0.089)" fill="#fff"/>
      <path id="Tracé_3309" data-name="Tracé 3309" d="M82.43,16.187H49.978A30.249,30.249,0,0,0,19.731,46.434V597.165a30.244,30.244,0,0,0,30.247,30.244h221.8a30.245,30.245,0,0,0,30.247-30.244V46.434a30.249,30.249,0,0,0-30.247-30.247H82.43Z" transform="translate(2.167 1.775)" fill="url(#linear-gradient)"/>
      <path id="Tracé_3310" data-name="Tracé 3310" d="M242.864,32.6a1.217,1.217,0,1,1-1.215,1.218,1.217,1.217,0,0,1,1.215-1.218" transform="translate(25.278 3.485)" fill="#231f20"/>
      <path id="Tracé_3311" data-name="Tracé 3311" d="M245.969,31.165l-.055-.052-.054-.051-.031-.026a3.963,3.963,0,0,0-5.475.129l-.177.177-.244.242a.764.764,0,0,0,1.08,1.08l.421-.42a2.444,2.444,0,0,1,3.457,0l.3.294a.755.755,0,0,0,1.068,0,.757.757,0,0,0,0-1.067Z" transform="translate(25.076 3.213)" fill="#231f20"/>
      <path id="Tracé_3312" data-name="Tracé 3312" d="M248.217,29.9l-.253-.253,0,0-.2-.2-.114-.091a6.613,6.613,0,0,0-8.936.206l-.039.03-.457.455a.7.7,0,0,0,.986.984l.457-.455.008-.009a5.225,5.225,0,0,1,7.207-.042l.359.36a.7.7,0,0,0,.984-.984" transform="translate(24.9 2.976)" fill="#231f20"/>
      <path id="Tracé_3313" data-name="Tracé 3313" d="M44.786,28.84h-.022l-1.33.632-.268-1.222,1.856-.858h1.343v6.976H44.786Z" transform="translate(4.607 2.942)" fill="#231f20"/>
      <path id="Tracé_3314" data-name="Tracé 3314" d="M50.654,34.494c-1.8,0-2.6-1.62-2.607-3.6,0-2.027.848-3.616,2.651-3.616,1.856,0,2.6,1.665,2.6,3.573,0,2.148-.869,3.638-2.629,3.638Zm.022-1.233c.633,0,.977-.794.977-2.383,0-1.547-.335-2.36-.988-2.36-.612,0-1,.781-1,2.36-.011,1.611.377,2.383,1,2.383Z" transform="translate(5.116 2.93)" fill="#231f20"/>
      <path id="Tracé_3315" data-name="Tracé 3315" d="M54.544,34.327a.961.961,0,1,1,.011,0Zm.011-3.466a.961.961,0,1,1,.009,0Z" transform="translate(5.694 3.099)" fill="#231f20"/>
      <path id="Tracé_3316" data-name="Tracé 3316" d="M56.341,32.777a3.661,3.661,0,0,0,1.62.431c.847,0,1.275-.409,1.275-.924,0-.7-.687-1.008-1.395-1.008h-.666V30.106h.634c.547,0,1.234-.213,1.234-.806,0-.416-.333-.729-1.03-.729a3.113,3.113,0,0,0-1.449.417l-.333-1.179a4.354,4.354,0,0,1,2.156-.527c1.481,0,2.308.785,2.308,1.741a1.66,1.66,0,0,1-1.275,1.619v.021a1.733,1.733,0,0,1,1.512,1.707c0,1.222-1.084,2.124-2.854,2.124a4.245,4.245,0,0,1-2.071-.484Z" transform="translate(5.944 2.93)" fill="#231f20"/>
      <path id="Tracé_3317" data-name="Tracé 3317" d="M63.952,34.494c-1.8,0-2.6-1.62-2.607-3.6,0-2.027.847-3.616,2.649-3.616,1.857,0,2.6,1.665,2.6,3.573,0,2.148-.869,3.638-2.629,3.638Zm.022-1.233c.633,0,.976-.794.976-2.383,0-1.547-.332-2.36-.987-2.36-.611,0-1,.781-1,2.36-.01,1.611.377,2.383,1,2.383Z" transform="translate(6.5 2.93)" fill="#231f20"/>
      <path id="Tracé_3318" data-name="Tracé 3318" d="M252.966,34.788a.672.672,0,0,1-.7-.645l-.01-5.051a.677.677,0,0,1,.7-.646l11.726-.02a.685.685,0,0,1,.707.644l0,1.047.905-.007.006,2.979-.906,0,0,1.033a.676.676,0,0,1-.7.644Zm11.933-5.9-12.153.018.005,5.432,12.157-.018Zm-11.68.524,8.841-.015.008,4.42-8.844.011Z" transform="translate(26.383 3.049)" fill="#231f20"/>
      <rect id="Rectangle_1539" data-name="Rectangle 1539" width="1.594" height="2.392" transform="translate(244.249 36.132)" fill="#231f20"/>
      <rect id="Rectangle_1540" data-name="Rectangle 1540" width="1.593" height="4.104" transform="translate(247.059 34.419)" fill="#231f20"/>
      <rect id="Rectangle_1541" data-name="Rectangle 1541" width="1.595" height="5.357" transform="translate(249.869 33.166)" fill="#231f20"/>
      <rect id="Rectangle_1542" data-name="Rectangle 1542" width="1.599" height="6.496" transform="translate(252.677 32.028)" fill="#231f20"/>
      <rect id="Rectangle_1543" data-name="Rectangle 1543" width="1.595" height="7.52" transform="translate(255.487 31.003)" fill="#231f20"/>
      <path id="Tracé_3319" data-name="Tracé 3319" d="M102.8,563.862h98.941a1.657,1.657,0,0,0,0-3.312H102.8a1.657,1.657,0,0,0,0,3.312" transform="translate(10.651 58.467)"/>
    </g>
  </g>
</svg>
