<svg xmlns="http://www.w3.org/2000/svg" width="56.468" height="20.705" viewBox="0 0 56.468 20.705">
  <path id="Blick_Logo_Rot_RGB" d="M8,12.313H4.706v3.765H8a1.882,1.882,0,0,0,0-3.765m-.7-6.744H4.706V9.177H7.294a1.8,1.8,0,1,0,0-3.608m7.45,8.861a5.8,5.8,0,0,1-5.8,5.8H0V1.412H8.314a5.489,5.489,0,0,1,4.472,8.673,5.79,5.79,0,0,1,1.959,4.346m8.784,5.8h4.706V7.059H23.528V20.235Zm32.94,0h-5.49l-3.921-5.228v5.228H42.351V.785h4.706v10.98l3.765-4.706h5.333l-5.02,6.274Zm-40.156,0h4.706V.785H16.313v19.45Zm6.9-17.567A2.667,2.667,0,1,1,25.88,5.333a2.667,2.667,0,0,1-2.666-2.666M38.9,11.137l2.039-3.294a6.845,6.845,0,0,0-4.078-1.255,7.059,7.059,0,1,0,0,14.117,6.845,6.845,0,0,0,4.078-1.255L38.9,16.157a3.8,3.8,0,0,1-1.725.47,2.98,2.98,0,0,1,0-5.961,3.812,3.812,0,0,1,1.725.47" fill="#fff"/>
</svg>
